<svg width="300px" height="250px" xmlns="http://www.w3.org/2000/svg">
    <!-- Colors -->
    <defs>
        <linearGradient id="gradient-blue" x1="0%" y1="0%" x2="0%" y2="100%">
            <stop offset="0%" style="stop-color:#55c4f9;" />
            <stop offset="100%" style="stop-color:#295ea7;" />
        </linearGradient>
        <linearGradient id="gradient-red" x1="0%" y1="0%" x2="0%" y2="100%">
            <stop offset="0%" style="stop-color:#f20085;" />
            <stop offset="100%" style="stop-color:#9a115d;" />
        </linearGradient>
        <linearGradient id="gradient-yellow" x1="0%" y1="0%" x2="0%" y2="100%">
            <stop offset="0%" style="stop-color:#f1aa1a;" />
            <stop offset="100%" style="stop-color:#e24726;" />
        </linearGradient>
        <linearGradient id="gradient-green" x1="0%" y1="0%" x2="0%" y2="100%">
            <stop offset="0%" style="stop-color:#56c740;" />
            <stop offset="100%" style="stop-color:#30823e;" />
        </linearGradient>
    </defs>

    <!-- Shapes -->
    <!-- light-blue rectangle -->
    <rect x="0" y="0" width="100" height="125" fill="#55c4f9" />
    <!-- light-red rectangle -->
    <rect x="00" y="125" width="100" height="125" fill="#f20085" />
    <!-- dark-blue triangle -->
    <polygon points="0,0 100,125 0,125" fill="#295ea7" />
    <!-- dark-red triangle -->
    <polygon points="0,250 100,250 100,125" fill="#9a115d" />
    <!-- dark-yellow triangle -->
    <polygon points="100,125 200,0 200,125" fill="#e24726" />
    <!-- dark-green triangle -->
    <polygon points="200,250 300,250 200,125" fill="#30823e" />
    <!-- light-yellow triangle -->
    <polygon points="200,0 300,0 200,125" fill="#f1aa1a" />
    <!-- light-green triangle -->
    <polygon points="200,125 200,250 100,125" fill="#56c740" />
</svg>
